<?xml version="1.0" encoding="UTF-8"?>
<svg width="16px" height="16px" viewBox="0 0 16 16" version="1.1" xmlns="http://www.w3.org/2000/svg" xmlns:xlink="http://www.w3.org/1999/xlink">
    <title>icon/密码/def</title>
    <g id="客户端" stroke="none" stroke-width="1" fill="none" fill-rule="evenodd">
        <g id="A-01交互状态-视觉样式" transform="translate(-348.000000, -150.000000)" fill="#000000" fill-rule="nonzero">
            <g id="icon/密码/def" transform="translate(348.000000, 150.000000)">
                <rect id="矩形" opacity="0" x="0" y="0" width="15.9999935" height="15.9999935"></rect>
                <g id="编组-9" transform="translate(3.000000, 2.000000)" fill-opacity="0.85">
                    <path d="M8.20583457,4.13330789 L2.62411483,4.13330789 L2.62411483,3.25012439 C2.62411483,1.97834014 3.70371835,0.989174622 5.08148462,0.98917461 C6.42392355,0.98917461 7.43569857,1.9642092 7.43569857,3.25718985 L7.43569857,3.42958727 C7.48647405,3.6560944 7.68755465,3.81708964 7.91968313,3.81708964 C8.15181161,3.81708964 8.35289221,3.6560944 8.40366769,3.42958727 L8.40366769,3.26001604 C8.41923204,2.37651011 8.06771312,1.52611063 7.43287237,0.911454462 C6.80355271,0.324423159 5.97459427,-0.00140145474 5.11398577,4.5313979e-06 L5.07017986,4.5313979e-06 C4.19569605,0.000366199909 3.35164462,0.32109569 2.6975957,0.90156281 C2.0291548,1.4986866 1.64892132,2.35382605 1.65331952,3.25012439 L1.65331952,4.20537566 C0.687790856,4.42689673 0.00252247878,5.28494646 4.99600361e-14,6.2755578 L4.99600361e-14,9.85916319 C0.00310926733,11.0407758 0.960635532,11.9976704 2.14224992,12.0000045 L8.20583457,12.0000045 C9.38721862,11.9976676 10.3443389,11.0405472 10.3466714,9.85916319 L10.3466714,6.2755578 C10.3443418,5.09394341 9.38744716,4.13641716 8.20583457,4.13330789 Z M9.37022372,6.2755578 L9.37022372,9.8577501 C9.36789862,10.4998589 8.84794338,11.0198141 8.20583457,11.0221392 L2.14224992,11.0221392 C1.49903977,11.0205856 0.978001345,10.4995471 0.976447691,9.856337 L0.976447691,6.2755578 C0.978001345,5.63234765 1.49903977,5.11130923 2.14224992,5.10975557 L8.20583457,5.10975557 C8.8481719,5.11285449 9.36790386,5.63321719 9.37022372,6.2755578 L9.37022372,6.2755578 Z" id="形状"></path>
                    <path d="M5.17616188,5.79369288 L5.16909642,5.79369288 C4.24671527,5.81118284 3.47567448,6.50033236 3.35515951,7.41497383 C3.23464454,8.3296153 3.8008615,9.19496454 4.68723149,9.45077913 L4.68723149,10.1799354 C4.71505905,10.3082038 4.7928695,10.4200881 4.90343482,10.490816 C4.98286907,10.5426066 5.07568313,10.5701071 5.17050951,10.5699499 C5.2056561,10.5696864 5.24068772,10.5658992 5.27507844,10.5586445 C5.46806542,10.5180477 5.61884305,10.36727 5.6594399,10.1742831 L5.6594399,9.44653985 C6.53907316,9.18543538 7.09816902,8.32336389 6.97782193,7.41372287 C6.85747483,6.50408184 6.09343175,5.81706394 5.17616188,5.79369288 Z M6.06358467,7.65332407 C6.06395974,7.88943287 5.97052545,8.11602023 5.80383632,8.28323937 C5.63714719,8.45045851 5.41085759,8.54461166 5.17474879,8.54498613 C4.68362918,8.54498613 4.28527937,8.14726925 4.28448951,7.65615026 C4.28215853,7.16447932 4.67883858,6.76400329 5.17050951,6.76165169 C5.66218044,6.75932071 6.06265647,7.15600075 6.06499776,7.64767168 L6.06358467,7.65332407 Z" id="形状"></path>
                </g>
            </g>
        </g>
    </g>
</svg>